<?xml version="1.0" encoding="UTF-8"?><svg id="Layer_1" xmlns="http://www.w3.org/2000/svg" viewBox="0 0 759.46 761.12"><defs><style>.cls-1{fill:#74e1ff;}.cls-1,.cls-2{stroke-width:0px;}.cls-2{fill:#52e1ef;}</style></defs><path class="cls-2" d="M687.05,155.19c123.52,159.7,85.75,422.01-88.38,537.51-195.95,139.38-475.02,54.86-564.51-154.49-14.66-27.3-22.81-59.11-29.6-89.71-8.72-16.66-3.79-103.12,5.3-50.32,6.39,231.56,234.4,403.51,464.89,341.84,171.66-40.17,311.09-229.28,270.22-427.86C710.31,120.93,521.26-22.49,310.39,15.91c-30.58,2.81-55.13,14.97-83.77,27.62-26.12-6.76,29.82-20.92,39.79-24.78,154.33-54.04,327.17,14.72,414.57,129.15l6.06,7.28Z"/><path class="cls-1" d="M660.18,379.47c3.88-73.1-36.67-139.67-72.14-190.28,13.08-12.18,46.35-31.78,15-43-27.12-32.3-47.65-42.05-94.18-64.37-98.42-44.36-221.55-29.87-307.82,25.37-19.06,15.67-42.59,30.64-57.65,52.5,7.73,13.12,20.82,19.32,29.58,31.61-55.82,62.67-82.77,149.75-69.93,237.9,1.92,24.38,25.99,62.75,18.32,74.62,4.58,16.37,19.01,32.65,25.88,46.02,156.6,224.75,516.47,93.55,512.92-170.37ZM179.05,153.19c98.81-84.27,272.45-109.54,394.65-4.3,16.45,5.5-.66,33.82-13.65,19.31-5.45-2.3-5.81-3.13,0,0-.13-7.45-12.75-12.43-18.83-15.52-64.31-53.21-195.55-68.7-265.37-30.58-26.22,5.01-47.25,28.56-73.34,41.33-4.77,4.29-7.81,6.98-9.47,10.76-8.16-1.91-21.6-12.21-14-21ZM268.05,125.19c1.7,0,2.55,0,3.56-.39-.97.77-2.36.24-3.56.39ZM307.17,113.13c1.55-.21-.02,0-.64.09.19-.03.4-.05.64-.09ZM309.51,112.81c-.13.02-.26.04-.39.05.13-.02.26-.04.39-.05ZM192.19,183.47c-.34.47-.7,1.08-1.15,1.88-.21-1.01.28-1.48,1.15-1.88ZM187.69,187.97c-1.18,1.47-2.36,2.74-3.89,4.06,1.24-1.55,2.4-2.89,3.89-4.06ZM175.23,200.82c1.05-1.11-1.6,3.13-1.19,4.37q-.33-2.92,1.19-4.37ZM110.52,340c5.46-19.96-3.2,8.85-1.74,17.4-.06-5.87.11-11.6,1.74-17.4ZM113.05,326.19c-.04.53-.09,1.05-.13,1.57.04-.52.09-1.05.13-1.57ZM150.13,359.01c-.07,1.86-.81,3.63-.98,5.4.14-1.88.86-3.56.98-5.4ZM148.95,369.18c0,.62.01,2.92,0,2.55,0-.87,0-1.71,0-2.55ZM108.86,362.38c-.02-1.12-.04-2.24-.06-3.35.02,1.13.04,2.24.06,3.35ZM109.05,385.19c-.07,6.32-.07,12.22-.25,18.48-.23-4.55-.06-9.33.25-18.48ZM610.05,377.19c3.52,123.2-89.6,226.1-215.12,233.5-45.9,6.86,22.08,13.27,33.05,4.31,28.13-6.82,58.16-18.86,83.82-35.43,61.68-42.41,105.81-113,106.25-194.38,32.5-2.79,37.84.11,31.79,33.61-5.49,40.5-19.24,69.95-37.79,104.39-32.28,55.69-92.97,99.81-157,120-89.31,21.33-194.12-10.77-255.32-68.47-19.18-17.86-31.92-35.2-44.68-56.53-9.24-6.42-7.67-26.85-23-24-16.74-43.7-20.29-65.28-22-108,13.48-3.19,43.68,9.32,38.93-11.25.48,2.9-1.25,9.25,1.06,10.25,1.55-11.86,4.35-60,.3-29.27,7.17-33.45,8.8-53.89,26.7-78.73,11.53-21.67,1.87-14.01-4.62,2.13,2.23-.6,11.77-29.98,19.63-27.12,19.83-38.58,84.76-100.06,186.07-102.04-1.03-20.37-71.62,4.75-71.82,5.47-53.16,7.96-141.64,82.41-158.26,169.57,3.35-2.02-1.96,13.06,0,9-.91-18.81-5.96,18.27-7,27,6.21,25-42.12,21.05-29.86-5.13,3.64-38.66,11.42-81.18,33.86-110.87,10.6-22.3,22.49-32.55,36-47,12.75-4.38,10.78-17.12,22.31-22.25,9.53-5.98,14.54-11.09,26.15-18.98,15.73-10.67,10.43-6.18,24.97-15.3,7.54-4.73,7.71-4.54,17.92-8.33,6.53-6.04,37.32-10.44,25.27-11.85,87.19-23.11,191.37-9.76,270.37,63.21,41.34,37.11,61.7,84.18,77.25,132.94,8.43,41.59,18.8,68.47-35.25,59.55ZM189.3,250.57c.86-1.59.94-3.92,2.54-4.9-.97,1.32-1.77,3.37-2.54,4.9Z"/></svg>